<?xml version="1.0" standalone="no"?><!-- Generator: Gravit.io --><svg xmlns="http://www.w3.org/2000/svg" xmlns:xlink="http://www.w3.org/1999/xlink" style="isolation:isolate" viewBox="0 0 60 16" width="60" height="16"><defs><clipPath id="_clipPath_2h0QqqfmUnIou71MUXvwc9xucBiYd3n7"><rect width="60" height="16"/></clipPath></defs><g clip-path="url(#_clipPath_2h0QqqfmUnIou71MUXvwc9xucBiYd3n7)"><path d=" M 9 8 L 4 3.5 L 51 3.5 L 56 8 L 51 12.5 L 4 12.5 L 9 8 Z " fill="rgb(2,3,2)" vector-effect="non-scaling-stroke" stroke-width="1" stroke="rgb(2,3,2)" stroke-linejoin="miter" stroke-linecap="butt" stroke-miterlimit="4"/><path d=" M 9 8 L 4 3.5 L 19 3.5 L 24 8 L 19 12.5 L 4 12.5 L 9 8 Z " fill="rgb(130,130,130)"/><path d=" M 25 8 L 20 3.5 L 35 3.5 L 40 8 L 35 12.5 L 20 12.5 L 25 8 Z " fill="rgb(251,219,37)"/><path d=" M 41 8 L 36 3.5 L 51 3.5 L 56 8 L 51 12.5 L 36 12.5 L 41 8 Z " fill="rgb(56,186,65)"/></g></svg>